<?xml version="1.0"?><svg width="640" height="480" xmlns="http://www.w3.org/2000/svg">
 <title>shopping cart</title>

 <metadata id="metadata7">image/svg+xmlshopping cartcartsupermarketshoppingshopping cartSergio Luiz Araujo Silva</metadata>
 <g>
  <path d="m236.719589,169.843979c0.195404,0.002762 0.396561,0.019806 0.588699,0.053848c0.003479,0.000717 0.007309,-0.000687 0.010803,0l19.403046,3.274933c1.233978,0.209244 2.268524,1.045517 2.725067,2.197647c0.000061,0.003586 0.000061,0.007172 0,0.010742l9.003906,22.816711l87.869415,2.165329c1.010559,0.024933 1.959137,0.476013 2.61615,1.228088c0.656952,0.75209 0.973175,1.752213 0.850311,2.747055l-4.8508,39.654495c-0.200073,1.663696 -1.590973,2.983002 -3.281097,3.113342l-62.645477,4.923141l-12.415771,9.65239c-0.01416,0.01123 -0.028717,0.021973 -0.043579,0.032288c-0.013245,0.009125 -0.030029,0.012634 -0.04364,0.021576c-0.01535,0.01001 -0.028229,0.022491 -0.043579,0.032288c-2.265778,1.671448 -2.827423,3.948517 -2.507141,5.21402c0.182465,0.7211 0.461029,1.250916 1.122772,1.658997c0.661743,0.408081 1.804871,0.70343 3.760681,0.592499c0.007324,-0.000092 0.014648,-0.000092 0.021942,0c0.062836,-0.002075 0.133362,-0.001373 0.196198,0c0.010437,0.000244 0.022339,-0.000336 0.032776,0l74.712463,0.215485l0.010834,0c1.96344,-0.012421 3.615906,1.615082 3.608063,3.554993c-0.00766,1.940094 -1.666595,3.561371 -3.629883,3.533478c-0.003845,-0.000061 -0.007355,0.000061 -0.010834,0l-5.461182,-0.010773c2.029144,1.27832 3.390076,3.514557 3.390076,6.054291c0,3.950134 -3.273743,7.185425 -7.27063,7.185425c-3.99707,0 -7.270691,-3.235291 -7.270691,-7.185425c0,-2.553467 1.364441,-4.811859 3.411835,-6.086639l-61.522797,-0.172363c2.216583,1.235016 3.728027,3.57959 3.728027,6.259003c0,3.950134 -3.273651,7.185425 -7.270721,7.185425c-3.997009,0 -7.270691,-3.235291 -7.270691,-7.185425c0,-3.430573 2.466003,-6.32254 5.733734,-7.023834c-3.089691,-1.080139 -5.463135,-3.307526 -6.932739,-6.711395c-0.021667,-0.041595 -0.039917,-0.084839 -0.054504,-0.129272c-1.126709,-4.452637 0.871613,-9.29361 4.992401,-12.442566c0.010681,-0.011047 0.021576,-0.02179 0.032776,-0.032318c0.010132,-0.007629 0.011902,-0.024658 0.021667,-0.032257c0.036041,-0.043213 0.076141,-0.082916 0.119904,-0.11853l8.796783,-6.819138l-27.436707,-69.451965l-17.408218,-2.930191c-0.003494,-0.000702 -0.007355,0.000687 -0.010849,0c-1.82872,-0.290573 -3.166138,-1.975037 -3.008545,-3.80278c0.157852,-1.831268 1.7724,-3.267563 3.629868,-3.242615l-0.000122,0zm34.380417,33.826447l5.057892,12.819595l6.594788,0l0,-12.528717l-11.652679,-0.290878zm14.170776,0.355499l0,12.464096l12.175873,0l0,-12.16246l-12.175873,-0.301636zm14.69397,0.355515l0,12.108582l12.175873,0l0,-11.806946l-12.175873,-0.301636zm14.69397,0.366272l0,11.74231l12.175873,0l0,-11.440674l-12.175873,-0.301636zm14.693909,0.366272l0,11.376038l12.175934,0l0,-11.074402l-12.175934,-0.301636zm14.693939,0.355499l0,11.020538l8.927612,0l1.31897,-10.761993l-10.246582,-0.258545zm8.622406,13.498276l-8.622406,0l0,11.257523l7.248871,0l1.373535,-11.257523zm-11.140411,0l-12.175934,0l0,11.257523l12.175934,0l0,-11.257523zm-14.693939,0l-12.175903,0l0,11.257523l12.175903,0l0,-11.257523zm-14.694,0l-12.175873,0l0,11.257523l12.175873,0l0,-11.257523zm-14.693909,0l-12.175934,0l0,11.257523l12.175934,0l0,-11.257523zm-14.69397,0l-5.624725,0l4.447449,11.257523l1.177277,0l0,-11.257523zm68.237488,13.735245l-6.943604,0l0,8.079559l6.01712,-0.473969l0.926483,-7.605591l0,0zm-9.46167,0l-12.175934,0l0,9.232269l12.175934,-0.958801l0,-8.273468zm-14.693939,0l-12.175903,0l0,10.384949l12.175903,-0.947998l0,-9.436951zm-14.694,0l-12.175873,0l0,11.548386l12.175873,-0.958755l0,-10.58963l0,0zm-14.693909,0l-12.175934,0l0,6.851471l2.310913,5.849625c0.299957,-0.143631 0.626984,-0.231796 0.959259,-0.25856l8.905762,-0.700226l0,-11.74231l0,0zm-14.69397,0l-0.185333,0l0.185333,0.506317l0,-0.506317zm61.686279,45.654938c-2.375793,0 -4.27301,1.875 -4.27301,4.222961c0,2.3479 1.897217,4.212128 4.27301,4.212128c2.375702,0 4.273071,-1.864227 4.273071,-4.212128c0,-2.347961 -1.897369,-4.222961 -4.273071,-4.222961zm-68.924255,0c-2.375793,0 -4.273041,1.875 -4.273041,4.222961c0,2.3479 1.897247,4.212128 4.273041,4.212128c2.375793,0 4.27298,-1.864227 4.27298,-4.212128c0,-2.347961 -1.897186,-4.222961 -4.27298,-4.222961zm68.924255,2.003754c1.29068,0 2.321777,1.019012 2.321777,2.294586c0,1.275574 -1.031097,2.283813 -2.321777,2.283813c-1.290741,0 -2.321808,-1.00824 -2.321808,-2.283813c0,-1.275574 1.031067,-2.294586 2.321808,-2.294586zm-68.924255,0c1.290649,0 2.321777,1.019012 2.321777,2.294586c0,1.275574 -1.031128,2.283813 -2.321777,2.283813c-1.29071,0 -2.321838,-1.00824 -2.321838,-2.283813c0,-1.275574 1.031128,-2.294586 2.321838,-2.294586z" id="path3847" stroke-width="15.5" fill="#7f7f7f"/>
  <title>Layer 1</title>
 </g>
</svg>